<?xml version="1.0" encoding="UTF-8" standalone="no"?>
<!-- Created with Inkscape (http://www.inkscape.org/) -->

<svg
   xmlns:dc="http://purl.org/dc/elements/1.1/"
   xmlns:cc="http://creativecommons.org/ns#"
   xmlns:rdf="http://www.w3.org/1999/02/22-rdf-syntax-ns#"
   xmlns:svg="http://www.w3.org/2000/svg"
   xmlns="http://www.w3.org/2000/svg"
   xmlns:sodipodi="http://sodipodi.sourceforge.net/DTD/sodipodi-0.dtd"
   xmlns:inkscape="http://www.inkscape.org/namespaces/inkscape"
   width="48"
   height="48"
   viewBox="0 0 12.7 12.7"
   version="1.1"
   id="svg4576"
   inkscape:version="0.92.4 5da689c313, 2019-01-14"
   sodipodi:docname="games.svg"
   inkscape:export-filename="/media/Download/Development/TwitchTube/src/qml/icons/games.png"
   inkscape:export-xdpi="256"
   inkscape:export-ydpi="256">
  <defs
     id="defs4570" />
  <sodipodi:namedview
     id="base"
     pagecolor="#ffffff"
     bordercolor="#666666"
     borderopacity="1.0"
     inkscape:pageopacity="0.0"
     inkscape:pageshadow="2"
     inkscape:zoom="11.313708"
     inkscape:cx="34.834661"
     inkscape:cy="17.959638"
     inkscape:document-units="mm"
     inkscape:current-layer="layer1"
     showgrid="false"
     units="px"
     inkscape:pagecheckerboard="true"
     inkscape:window-width="1920"
     inkscape:window-height="1016"
     inkscape:window-x="0"
     inkscape:window-y="27"
     inkscape:window-maximized="1" />
  <metadata
     id="metadata4573">
    <rdf:RDF>
      <cc:Work
         rdf:about="">
        <dc:format>image/svg+xml</dc:format>
        <dc:type
           rdf:resource="http://purl.org/dc/dcmitype/StillImage" />
        <dc:title />
      </cc:Work>
    </rdf:RDF>
  </metadata>
  <g
     inkscape:label="Layer 1"
     inkscape:groupmode="layer"
     id="layer1"
     transform="translate(0,-284.30001)">
    <path
       style="fill:#ffffff;fill-opacity:1;fill-rule:evenodd;stroke:#ffffff;stroke-width:0.07768201;stroke-linecap:butt;stroke-linejoin:miter;stroke-miterlimit:4;stroke-dasharray:none;stroke-opacity:1"
       d="m 6.3530983,289.71617 c 0.020989,-2.4e-4 0.5763752,-0.3481 0.6486494,-0.45793 0.032928,-0.0501 0,-1.01031 0,-1.51548 v -1.51549 c 0,-0.0684 -1.3001416,-0.0693 -1.3001416,0 l -4.762e-4,1.51488 c -1.586e-4,0.50496 -0.039004,1.4631 -4.761e-4,1.51487 0.087381,0.11748 0.6311473,0.4594 0.6524445,0.45915 z"
       id="path5144"
       inkscape:connector-curvature="0"
       sodipodi:nodetypes="sssccsss" />
    <path
       sodipodi:nodetypes="sssccsss"
       inkscape:connector-curvature="0"
       id="path1505"
       d="m 6.3530983,291.58384 c 0.02099,2.4e-4 0.5763763,0.34808 0.6486506,0.4579 0.032928,0.0501 0,1.01026 0,1.5154 v 1.5154 c 0,0.0684 -1.3001439,0.0693 -1.3001439,0 l -4.763e-4,-1.51479 c -1.586e-4,-0.50493 -0.039004,-1.46301 -4.761e-4,-1.51479 0.087381,-0.11747 0.6311485,-0.45937 0.6524457,-0.45912 z"
       style="fill:#ffffff;fill-opacity:1;fill-rule:evenodd;stroke:#ffffff;stroke-width:0.07767976;stroke-linecap:butt;stroke-linejoin:miter;stroke-miterlimit:4;stroke-dasharray:none;stroke-opacity:1" />
    <path
       sodipodi:nodetypes="sssccsss"
       inkscape:connector-curvature="0"
       id="path1511"
       d="m 7.2837344,290.653 c 2.4e-4,0.021 0.3481,0.57638 0.45793,0.64865 0.0501,0.0329 1.01031,0 1.51548,0 h 1.5154896 c 0.0684,0 0.0693,-1.30014 0,-1.30014 l -1.5148796,-4.8e-4 c -0.50496,-1.5e-4 -1.4631,-0.039 -1.51487,-4.7e-4 -0.11748,0.0874 -0.4594,0.63115 -0.45915,0.65244 z"
       style="fill:#ffffff;fill-opacity:1;fill-rule:evenodd;stroke:#ffffff;stroke-width:0.07768201;stroke-linecap:butt;stroke-linejoin:miter;stroke-miterlimit:4;stroke-dasharray:none;stroke-opacity:1" />
    <path
       style="fill:#ffffff;fill-opacity:1;fill-rule:evenodd;stroke:#ffffff;stroke-width:0.07767976;stroke-linecap:butt;stroke-linejoin:miter;stroke-miterlimit:4;stroke-dasharray:none;stroke-opacity:1"
       d="m 5.4160644,290.653 c -2.4e-4,0.021 -0.34808,0.57638 -0.4579,0.64865 -0.0501,0.0329 -1.01026,0 -1.5154,0 h -1.5154 c -0.0684,0 -0.0693,-1.30014 0,-1.30014 l 1.51479,-4.8e-4 c 0.50493,-1.6e-4 1.46301,-0.039 1.51479,-4.7e-4 0.11747,0.0874 0.45937,0.63115 0.45912,0.65244 z"
       id="path1513"
       inkscape:connector-curvature="0"
       sodipodi:nodetypes="sssccsss" />
  </g>
</svg>
