<?xml version="1.0" encoding="UTF-8" standalone="no"?>
<!-- Created with Inkscape (http://www.inkscape.org/) -->

<svg
   xmlns:dc="http://purl.org/dc/elements/1.1/"
   xmlns:cc="http://creativecommons.org/ns#"
   xmlns:rdf="http://www.w3.org/1999/02/22-rdf-syntax-ns#"
   xmlns:svg="http://www.w3.org/2000/svg"
   xmlns="http://www.w3.org/2000/svg"
   xmlns:sodipodi="http://sodipodi.sourceforge.net/DTD/sodipodi-0.dtd"
   xmlns:inkscape="http://www.inkscape.org/namespaces/inkscape"
   id="svg3004"
   version="1.1"
   inkscape:version="0.91 r13725"
   width="90"
   height="90"
   xml:space="preserve"
   sodipodi:docname="ubuntu-icon.svg"
   inkscape:export-filename="/home/andrew/Development/TwitchTube/ubuntu/TwitchTube.png"
   inkscape:export-xdpi="256"
   inkscape:export-ydpi="256"><metadata
     id="metadata3010"><rdf:RDF><cc:Work
         rdf:about=""><dc:format>image/svg+xml</dc:format><dc:type
           rdf:resource="http://purl.org/dc/dcmitype/StillImage" /><dc:title /><cc:license
           rdf:resource="http://creativecommons.org/licenses/by/3.0/" /></cc:Work><cc:License
         rdf:about="http://creativecommons.org/licenses/by/3.0/"><cc:permits
           rdf:resource="http://creativecommons.org/ns#Reproduction" /><cc:permits
           rdf:resource="http://creativecommons.org/ns#Distribution" /><cc:requires
           rdf:resource="http://creativecommons.org/ns#Notice" /><cc:requires
           rdf:resource="http://creativecommons.org/ns#Attribution" /><cc:permits
           rdf:resource="http://creativecommons.org/ns#DerivativeWorks" /></cc:License></rdf:RDF></metadata><defs
     id="defs3008"><clipPath
       clipPathUnits="userSpaceOnUse"
       id="clipPath3018"><path
         d="M 0,86 86,86 86,0 0,0 0,86 Z"
         id="path3020"
         inkscape:connector-curvature="0" /></clipPath><clipPath
       clipPathUnits="userSpaceOnUse"
       id="clipPath3042"><path
         d="M 1.722,85.651 C 0.937,85.651 0.3,85.015 0.3,84.23 l 0,0 L 0.3,43 C 0.3,19.444 19.397,0.348 42.952,0.348 l 0,0 41.23,0 c 0.784,0 1.421,0.696 1.421,1.482 l 0,0 0,82.4 c 0,0.785 -0.637,1.421 -1.421,1.421 l 0,0 -82.46,0 z"
         id="path3044"
         inkscape:connector-curvature="0" /></clipPath><linearGradient
       x1="0"
       y1="0"
       x2="1"
       y2="0"
       gradientUnits="userSpaceOnUse"
       gradientTransform="matrix(72.394089,72.394089,72.394089,-72.394089,12.785132,12.848091)"
       spreadMethod="pad"
       id="linearGradient3050"><stop
         style="stop-opacity:1;stop-color:#f5e7b8"
         offset="0"
         id="stop3052" /><stop
         style="stop-opacity:1;stop-color:#e6d695"
         offset="0.995074"
         id="stop3054" /><stop
         style="stop-opacity:1;stop-color:#e6d695"
         offset="1"
         id="stop3056" /></linearGradient><clipPath
       clipPathUnits="userSpaceOnUse"
       id="clipPath3064"><path
         d="M 1.722,85.651 C 0.937,85.651 0.3,85.015 0.3,84.23 l 0,0 0,-12.934 85.303,0 0,12.934 c 0,0.785 -0.637,1.421 -1.421,1.421 l 0,0 -82.46,0 z"
         id="path3066"
         inkscape:connector-curvature="0" /></clipPath><linearGradient
       x1="0"
       y1="0"
       x2="1"
       y2="0"
       gradientUnits="userSpaceOnUse"
       gradientTransform="matrix(49.412403,49.412403,49.412403,-49.412403,18.245207,53.351391)"
       spreadMethod="pad"
       id="linearGradient3072"><stop
         style="stop-color:#560b9d;stop-opacity:1;"
         offset="0"
         id="stop3074" /><stop
         style="stop-color:#8100bf;stop-opacity:1;"
         offset="1"
         id="stop3076" /></linearGradient><clipPath
       clipPathUnits="userSpaceOnUse"
       id="clipPath3084"><path
         d="M 0,86 86,86 86,0 0,0 0,86 Z"
         id="path3086"
         inkscape:connector-curvature="0" /></clipPath><clipPath
       clipPathUnits="userSpaceOnUse"
       id="clipPath3092"><path
         d="m 9.9184,21.6257 75.7816,0 0,-1.9431 -75.7816,0 0,1.9431 z"
         id="path3094"
         inkscape:connector-curvature="0" /></clipPath><clipPath
       clipPathUnits="userSpaceOnUse"
       id="clipPath3106"><path
         d="m 9.9184,31.3413 75.7816,0 0,-1.9431 -75.7816,0 0,1.9431 z"
         id="path3108"
         inkscape:connector-curvature="0" /></clipPath><clipPath
       clipPathUnits="userSpaceOnUse"
       id="clipPath3120"><path
         d="m 15.7478,10.9386 69.9522,0 0,-1.94319 -69.9522,0 0,1.94319 z"
         id="path3122"
         inkscape:connector-curvature="0" /></clipPath><clipPath
       clipPathUnits="userSpaceOnUse"
       id="clipPath3136"><path
         d="m 9.9184,41.0569 75.7816,0 0,-1.9431 -75.7816,0 0,1.9431 z"
         id="path3138"
         inkscape:connector-curvature="0" /></clipPath><clipPath
       clipPathUnits="userSpaceOnUse"
       id="clipPath3150"><path
         d="m 9.9184,61.4596 75.7816,0 0,-1.9431 -75.7816,0 0,1.9431 z"
         id="path3152"
         inkscape:connector-curvature="0" /></clipPath><clipPath
       clipPathUnits="userSpaceOnUse"
       id="clipPath3164"><path
         d="m 9.9184,50.7725 75.7816,0 0,-1.9431 -75.7816,0 0,1.9431 z"
         id="path3166"
         inkscape:connector-curvature="0" /></clipPath><clipPath
       clipPathUnits="userSpaceOnUse"
       id="clipPath3178"><path
         d="m 17.1779,65.5372 57.9678,0 0,-48.3108 -57.9678,0 0,48.3108 z"
         id="path3180"
         inkscape:connector-curvature="0" /></clipPath><clipPath
       clipPathUnits="userSpaceOnUse"
       id="clipPath3042-1"><path
         inkscape:connector-curvature="0"
         d="M 1.722,85.651 C 0.937,85.651 0.3,85.015 0.3,84.23 l 0,0 L 0.3,43 C 0.3,19.444 19.397,0.348 42.952,0.348 l 0,0 41.23,0 c 0.784,0 1.421,0.696 1.421,1.482 l 0,0 0,82.4 c 0,0.785 -0.637,1.421 -1.421,1.421 l 0,0 -82.46,0 z"
         id="path3044-0" /></clipPath><filter
       style="color-interpolation-filters:sRGB;"
       inkscape:label="Drop Shadow"
       id="filter4240"><feFlood
         flood-opacity="0.498039"
         flood-color="rgb(0,0,0)"
         result="flood"
         id="feFlood4242" /><feComposite
         in="flood"
         in2="SourceGraphic"
         operator="in"
         result="composite1"
         id="feComposite4244" /><feGaussianBlur
         in="composite1"
         stdDeviation="1"
         result="blur"
         id="feGaussianBlur4246" /><feOffset
         dx="2"
         dy="-2"
         result="offset"
         id="feOffset4248" /><feComposite
         in="SourceGraphic"
         in2="offset"
         operator="over"
         result="composite2"
         id="feComposite4250" /></filter></defs><sodipodi:namedview
     pagecolor="#ffffff"
     bordercolor="#666666"
     borderopacity="1"
     objecttolerance="10"
     gridtolerance="10"
     guidetolerance="10"
     inkscape:pageopacity="0"
     inkscape:pageshadow="2"
     inkscape:window-width="1920"
     inkscape:window-height="1016"
     id="namedview3006"
     showgrid="false"
     inkscape:zoom="5.9791634"
     inkscape:cx="56.1781"
     inkscape:cy="41.437731"
     inkscape:window-x="0"
     inkscape:window-y="27"
     inkscape:window-maximized="1"
     inkscape:current-layer="g3012" /><g
     id="g3012"
     inkscape:groupmode="layer"
     inkscape:label="icon-launcher-notes"
     transform="matrix(1.25,0,0,-1.25,0,90)"><g
       id="g3014"
       transform="scale(0.83333329,0.83333329)"><g
         id="g3016"
         clip-path="url(#clipPath3018)"><g
           id="g3022"
           transform="translate(41.4232,0.3937)"><path
             d="M 0,0 C -0.195,0.009 -0.407,0.02 -0.635,0.033 -0.427,0.018 -0.213,0.01 0,0"
             style="fill:#ffc8a0;fill-opacity:1;fill-rule:nonzero;stroke:none"
             id="path3024"
             inkscape:connector-curvature="0" /></g><g
           id="g3026"
           transform="translate(41.8125,0.3774)"><path
             d="m 0,0 c 0.38,-0.01 0.757,-0.029 1.139,-0.029 -0.526,0 -1.028,0.022 -1.528,0.045 C -0.249,0.01 -0.123,0.005 0,0"
             style="fill:#ffc8a0;fill-opacity:1;fill-rule:nonzero;stroke:none"
             id="path3028"
             inkscape:connector-curvature="0" /></g><g
           id="g3030"
           transform="translate(0.3778,40.8365)"><path
             d="M 0,0 C -0.013,0.228 -0.024,0.44 -0.033,0.635 -0.023,0.423 -0.014,0.208 0,0"
             style="fill:#ffc8a0;fill-opacity:1;fill-rule:nonzero;stroke:none"
             id="path3032"
             inkscape:connector-curvature="0" /></g><g
           id="g3034"
           transform="translate(0.3288,41.861)"><path
             d="M 0,0 C 0.005,-0.123 0.01,-0.249 0.016,-0.389 -0.007,0.111 -0.029,0.613 -0.029,1.139 -0.029,0.757 -0.01,0.38 0,0"
             style="fill:#ffc8a0;fill-opacity:1;fill-rule:nonzero;stroke:none"
             id="path3036"
             inkscape:connector-curvature="0" /></g></g></g><rect
       style="fill:#5e09a3;fill-opacity:1"
       id="rect3386"
       width="72"
       height="36"
       x="0"
       y="-72"
       transform="scale(1,-1)" /><rect
       style="opacity:0.98000004;fill:#7c01bb;fill-opacity:1"
       id="rect4179"
       width="72"
       height="36"
       x="0"
       y="-36"
       transform="scale(1,-1)" /><g
       id="g3261"
       transform="matrix(0.70058884,0,0,0.70058884,2.7090336,3.8507291)"
       style="opacity:0.98000004;fill:#f3f3f3;fill-opacity:1;filter:url(#filter4240)"><path
         transform="matrix(0.8,0,0,-0.8,0,86)"
         inkscape:connector-curvature="0"
         id="path3255"
         d="m 39.74661,86.180671 0,-5.351919 -9.951225,0 -9.951225,0 0,-28.74161 c 0,-20.158668 0.05406,-28.91138 0.181034,-29.31012 0.09957,-0.312681 0.244141,-0.719034 0.321272,-0.903006 0.07713,-0.183972 0.475729,-1.237632 0.885775,-2.341465 0.410046,-1.103833 1.270255,-3.399305 1.911577,-5.101048 0.641321,-1.701743 1.382831,-3.677354 1.6478,-4.390246 l 0.481761,-1.2961683 36.839419,0 36.839419,0 0,25.2130393 0,25.213041 -10.829752,10.82879 -10.829754,10.828793 -8.112003,0 -8.112005,0 -5.349959,5.351919 -5.349959,5.35192 -5.311087,0 -5.311088,0 0,-5.35192 0,0 z m 29.662429,-17.89548 9.889971,0 6.314406,-6.312768 6.314407,-6.312766 0,-19.861464 0,-19.861463 -29.853675,0 -29.853675,0 0,26.174231 0,26.17423 8.195127,0 8.195126,0 0,5.453939 0,5.453938 5.454171,-5.453938 5.454173,-5.453939 9.889969,0 0,0 z"
         style="fill:#f3f3f3;fill-opacity:1" /><path
         transform="matrix(0.8,0,0,-0.8,0,86)"
         inkscape:connector-curvature="0"
         id="path3257"
         d="m 52.290171,41.1911 0,-10.703839 3.512197,0 3.512197,0 0,10.703839 0,10.703838 -3.512197,0 -3.512197,0 0,-10.703838 z"
         style="fill:#f3f3f3;fill-opacity:1" /><path
         transform="matrix(0.8,0,0,-0.8,0,86)"
         inkscape:connector-curvature="0"
         id="path3259"
         d="m 72.192621,41.1911 0,-10.703839 3.512197,0 3.512197,0 0,10.703839 0,10.703838 -3.512197,0 -3.512197,0 0,-10.703838 z"
         style="fill:#f3f3f3;fill-opacity:1" /></g></g></svg>